<svg width="80" height="80" viewBox="0 0 80 80" fill="none" xmlns="http://www.w3.org/2000/svg">
<path fill-rule="evenodd" clip-rule="evenodd" d="M48.0257 80C48.1771 79.4753 48.3248 78.9468 48.4686 78.4144L77.0503 74.552L79.3852 66.7238L51.9648 43.0857C51.0269 26.1126 46.4877 10.9704 39.6926 0C32.8975 10.9704 28.3583 26.1126 27.4204 43.0857L0 66.7238L2.33486 74.552L30.9166 78.4144C31.0604 78.9468 31.208 79.4753 31.3595 80H48.0257ZM39.6926 23.1851C41.4119 23.1851 42.8057 19.7006 42.8057 15.4023C42.8057 11.1039 41.4119 7.6194 39.6926 7.6194C37.9732 7.6194 36.5794 11.1039 36.5794 15.4023C36.5794 19.7006 37.9732 23.1851 39.6926 23.1851Z" fill="white"/>
<ellipse cx="39.6926" cy="15.4023" rx="3.11314" ry="7.78286" fill="black" fill-opacity="0.78"/>
</svg> 